<svg id="Capa_1" enable-background="new 0 0 512 512" height="512" viewBox="0 0 512 512" width="512" xmlns="http://www.w3.org/2000/svg"><g><path d="m437.02 74.98c-48.353-48.351-112.64-74.98-181.02-74.98s-132.667 26.629-181.02 74.98c-48.351 48.353-74.98 112.64-74.98 181.02s26.629 132.667 74.98 181.02c48.353 48.351 112.64 74.98 181.02 74.98s132.667-26.629 181.02-74.98c48.351-48.353 74.98-112.64 74.98-181.02s-26.629-132.667-74.98-181.02zm-14.171 347.869c-44.566 44.568-103.822 69.112-166.849 69.112s-122.283-24.544-166.849-69.112c-44.568-44.566-69.112-103.822-69.112-166.849s24.544-122.283 69.112-166.849c44.566-44.568 103.822-69.112 166.849-69.112s122.283 24.544 166.849 69.112c44.568 44.567 69.112 103.822 69.112 166.849s-24.544 122.283-69.112 166.849z"/><path d="m184.044 98.024c-22.078 0-40.041 17.963-40.041 40.042v235.867c0 22.079 17.963 40.042 40.041 40.042 22.079 0 40.042-17.963 40.042-40.042v-73.597c0-5.533-4.486-10.02-10.02-10.02-5.533 0-10.02 4.486-10.02 10.02v73.597c0 11.029-8.974 20.003-20.003 20.003s-20.002-8.974-20.002-20.003v-235.866c0-11.029 8.973-20.003 20.002-20.003s20.003 8.974 20.003 20.003v72.344c0 5.533 4.486 10.02 10.02 10.02 5.533 0 10.02-4.486 10.02-10.02v-72.344c0-22.08-17.963-40.043-40.042-40.043z"/><path d="m327.956 98.024c-22.079 0-40.042 17.963-40.042 40.042v235.867c0 22.079 17.963 40.042 40.042 40.042 22.078 0 40.041-17.963 40.041-40.042v-235.866c0-22.08-17.963-40.043-40.041-40.043zm20.002 275.909c0 11.029-8.973 20.003-20.002 20.003s-20.003-8.974-20.003-20.003v-235.866c0-11.029 8.974-20.003 20.003-20.003s20.002 8.974 20.002 20.003z"/><circle cx="214.067" cy="256" r="10"/></g></svg>